<?xml version="1.0" encoding="UTF-8"?>
<svg xmlns="http://www.w3.org/2000/svg" xmlns:xlink="http://www.w3.org/1999/xlink" width="100px" height="200px" viewBox="0 0 200 200" version="1.1">
<g id="surface1">
<path d="M 106.265625 8.945312 C 107.332031 6.007812 106.21875 2.722656 103.582031 1.042969 C 100.945312 -0.636719 97.496094 -0.257812 95.285156 1.953125 L 41.953125 55.285156 C 41.351562 55.886719 40.875 56.59375 40.539062 57.375 L 0.539062 150.707031 C -0.34375 152.765625 -0.132812 155.132812 1.101562 157.003906 C 2.335938 158.875 4.425781 160 6.667969 160 L 46.667969 160 C 49.46875 160 51.972656 158.246094 52.933594 155.613281 Z M 106.265625 8.945312 "/>
<path d="M 132.734375 30.574219 C 131.632812 28.144531 129.183594 26.605469 126.511719 26.667969 C 123.84375 26.730469 121.46875 28.378906 120.476562 30.859375 L 93.808594 97.523438 C 92.945312 99.683594 93.269531 102.140625 94.667969 104 L 129.117188 149.933594 L 57.890625 173.675781 C 54.789062 174.710938 52.894531 177.839844 53.417969 181.066406 C 53.941406 184.296875 56.730469 186.667969 60 186.667969 L 193.332031 186.667969 C 195.601562 186.667969 197.710938 185.515625 198.9375 183.609375 C 200.164062 181.703125 200.339844 179.304688 199.402344 177.242188 Z M 132.734375 30.574219 "/>
</g>
</svg>
