<?xml version="1.0" encoding="UTF-8"?>
<svg xmlns="http://www.w3.org/2000/svg" xmlns:xlink="http://www.w3.org/1999/xlink" width="100px" height="200px" viewBox="0 0 200 200" version="1.1">
<g id="surface1">
<path d="M 133.332031 106.667969 L 133.332031 93.332031 L 146.667969 93.332031 L 146.667969 106.667969 Z M 133.332031 106.667969 "/>
<path d="M 100 5.617188 L 186.667969 56.171875 L 186.667969 143.828125 L 100 194.382812 L 13.332031 143.828125 L 13.332031 56.171875 Z M 84.421875 53.332031 C 59.886719 53.332031 40 73.222656 40 97.753906 L 40 102.246094 C 40 126.777344 59.886719 146.667969 84.421875 146.667969 C 91.316406 146.667969 98.117188 145.0625 104.285156 141.976562 L 109.648438 139.296875 L 103.683594 127.371094 L 98.324219 130.050781 C 94.007812 132.210938 89.246094 133.332031 84.421875 133.332031 C 67.25 133.332031 53.332031 119.414062 53.332031 102.246094 L 53.332031 97.753906 C 53.332031 80.585938 67.25 66.667969 84.421875 66.667969 C 89.246094 66.667969 94.007812 67.789062 98.324219 69.949219 L 103.683594 72.628906 L 109.648438 60.703125 L 104.285156 58.023438 C 98.117188 54.9375 91.316406 53.332031 84.421875 53.332031 Z M 120 66.667969 L 120 80 L 106.667969 80 L 106.667969 93.332031 L 120 93.332031 L 120 106.667969 L 106.667969 106.667969 L 106.667969 120 L 120 120 L 120 133.332031 L 133.332031 133.332031 L 133.332031 120 L 146.667969 120 L 146.667969 133.332031 L 160 133.332031 L 160 120 L 173.332031 120 L 173.332031 106.667969 L 160 106.667969 L 160 93.332031 L 173.332031 93.332031 L 173.332031 80 L 160 80 L 160 66.667969 L 146.667969 66.667969 L 146.667969 80 L 133.332031 80 L 133.332031 66.667969 Z M 120 66.667969 "/>
</g>
</svg>
