<?xml version="1.0" encoding="UTF-8"?>
<svg xmlns="http://www.w3.org/2000/svg" xmlns:xlink="http://www.w3.org/1999/xlink" width="100px" height="200px" viewBox="0 0 200 200" version="1.1">
<g id="surface1">
<path d="M 181.425781 0 L 18.570312 0 C 14.667969 0 11.742188 3.300781 12.085938 7.203125 L 26.960938 173.890625 C 27.304688 177.789062 30.675781 181.867188 34.457031 182.921875 L 93.09375 199.210938 C 96.871094 200.257812 103.042969 200.265625 106.824219 199.222656 L 165.535156 182.957031 C 169.320312 181.910156 172.691406 177.867188 173.035156 173.960938 L 187.914062 7.203125 C 188.257812 3.300781 185.34375 0 181.425781 0 Z M 153.179688 60.171875 C 153.179688 60.195312 153.15625 60.214844 153.132812 60.21875 C 153.109375 60.222656 153.082031 60.210938 153.070312 60.1875 L 107.128906 79.015625 C 106.476562 79.28125 106.101562 79.976562 106.238281 80.671875 C 106.375 81.363281 106.984375 81.863281 107.691406 81.863281 L 143.425781 81.863281 C 145.328125 81.863281 147.136719 82.671875 148.410156 84.085938 C 149.679688 85.5 150.292969 87.386719 150.089844 89.277344 L 144.507812 141.65625 C 144.230469 144.226562 142.503906 146.40625 140.066406 147.265625 L 102.136719 160.613281 C 100.707031 161.113281 99.152344 161.117188 97.71875 160.621094 L 59.964844 147.542969 C 57.511719 146.695312 55.773438 144.503906 55.496094 141.925781 L 52.964844 118.203125 C 52.832031 116.957031 53.234375 115.714844 54.070312 114.785156 C 54.910156 113.851562 56.101562 113.320312 57.355469 113.320312 L 67.859375 113.320312 C 70.117188 113.320312 72.011719 115.023438 72.25 117.265625 L 73.804688 131.847656 L 99.941406 140.933594 L 126.203125 131.765625 L 129.414062 101.523438 L 55.167969 101.523438 C 52.917969 101.523438 51.027344 99.832031 50.777344 97.59375 L 49.367188 84.777344 C 49.148438 82.824219 50.253906 80.960938 52.070312 80.210938 L 99.589844 60.621094 C 100.128906 60.398438 100.433594 59.828125 100.324219 59.253906 C 100.207031 58.683594 99.707031 58.273438 99.125 58.273438 L 49.09375 58.273438 C 47.585938 58.273438 46.324219 57.132812 46.167969 55.636719 L 44.71875 41.859375 C 44.632812 41.03125 44.902344 40.203125 45.460938 39.585938 C 46.015625 38.964844 46.8125 38.613281 47.644531 38.613281 L 152.332031 38.613281 C 153.171875 38.613281 153.96875 38.96875 154.527344 39.59375 C 155.085938 40.21875 155.351562 41.054688 155.257812 41.886719 Z M 153.179688 60.171875 "/>
</g>
</svg>
