<?xml version="1.0" encoding="UTF-8"?>
<svg xmlns="http://www.w3.org/2000/svg" xmlns:xlink="http://www.w3.org/1999/xlink" width="100px" height="226px" viewBox="0 0 200 225" version="1.1">
<g id="surface1">
<path d="M 86.667969 7.667969 L 16 48.667969 C 7.832031 53.5 2.667969 62.167969 2.667969 71.667969 L 2.667969 153.332031 C 2.667969 162.832031 7.667969 171.667969 16 176.332031 L 86.667969 217.332031 C 94.832031 222.167969 105 222.167969 113.332031 217.332031 L 184.167969 176.5 C 192.332031 171.667969 197.5 163 197.5 153.5 L 197.5 71.667969 C 197.5 62.167969 192.5 53.332031 184.167969 48.667969 L 113.332031 7.667969 C 105 3 95 3 86.667969 7.667969 Z M 86.667969 7.667969 "/>
<path class="foreground" d="M 74.667969 123.832031 L 80.167969 123.832031 C 83.332031 123.832031 85.667969 124.832031 87.5 126.832031 C 89.332031 128.832031 90.332031 131.667969 90.332031 135.332031 C 90.332031 139.167969 89.5 142 87.667969 144 C 85.832031 146 83.332031 147 80 147 L 74.667969 147 Z M 79.667969 128 L 79.667969 142.832031 L 80.332031 142.832031 C 81.332031 142.832031 82.332031 142.5 83.5 141.667969 C 84.667969 140.832031 85.167969 138.832031 85.167969 135.832031 C 85.167969 133.5 85 131.832031 84.5 131 C 84.167969 130 83.5 129.332031 82.667969 128.832031 C 81.832031 128.332031 81 128.167969 80.167969 128.167969 L 79.667969 128.167969 Z M 79.667969 128 "/>
<path class="foreground" d="M 105.167969 135.332031 C 106.5 136 107.5 136.667969 108 137.667969 C 108.5 138.5 108.832031 139.832031 108.832031 141.167969 C 108.832031 142.832031 108.167969 144.167969 107 145.332031 C 105.832031 146.5 104.332031 147 102.667969 147 L 94.332031 147 L 94.332031 123.667969 L 101.5 123.667969 C 103.5 123.667969 105.167969 124.167969 106.5 125.332031 C 107.832031 126.5 108.5 127.832031 108.5 129.5 C 108.5 130.832031 108.167969 132 107.667969 132.832031 C 107 134 106.167969 134.832031 105.167969 135.332031 Z M 99.332031 133.667969 L 100.332031 133.667969 C 101.167969 133.667969 101.832031 133.332031 102.332031 132.832031 C 102.832031 132.332031 103.167969 131.5 103.167969 130.667969 C 103.167969 128.5 102.167969 127.5 100 127.5 L 99.332031 127.5 Z M 99.332031 143.332031 L 100.832031 143.332031 C 101.667969 143.332031 102.332031 143 102.832031 142.5 C 103.332031 142 103.5 141.167969 103.5 140.332031 C 103.5 138.332031 102.5 137.332031 100.332031 137.332031 L 99.332031 137.332031 Z M 99.332031 143.332031 "/>
<path class="foreground" d="M 111.832031 132.332031 L 112 130.5 C 112 128.667969 112.332031 127.332031 112.832031 126.332031 C 113.332031 125.332031 114.167969 124.667969 115.167969 124 C 116.332031 123.5 117.5 123.167969 118.832031 123.167969 C 120.832031 123.167969 122.5 123.667969 123.667969 124.832031 C 124.832031 126 125.5 127.5 125.5 129.332031 C 125.5 130.5 125.332031 131.5 124.832031 132.832031 C 124.332031 134 123.5 135.5 122.332031 137.332031 L 119 142.332031 L 124.832031 142.332031 L 124.832031 146.832031 L 111.667969 146.832031 L 111.667969 145.332031 L 119.5 133.332031 C 119.667969 133 120 132.5 120.167969 131.667969 C 120.5 130.832031 120.5 130.332031 120.5 129.832031 C 120.5 129.167969 120.332031 128.5 120 128 C 119.667969 127.5 119.167969 127.332031 118.5 127.332031 C 117.832031 127.332031 117.167969 127.667969 116.832031 128.332031 C 116.5 129 116.167969 129.832031 116.167969 131 L 116.167969 132.167969 L 111.832031 132.167969 Z M 111.832031 132.332031 "/>
<path class="foreground" d="M 135.832031 57.332031 L 64.332031 57.332031 C 53.667969 57.332031 44.832031 66.167969 44.832031 76.832031 L 44.832031 148.332031 C 44.832031 159 53.667969 167.832031 64.332031 167.832031 L 135.832031 167.832031 C 146.5 167.832031 155.332031 159 155.332031 148.332031 L 155.332031 76.832031 C 155.332031 66 146.5 57.332031 135.832031 57.332031 Z M 133.667969 100 L 133.667969 97.5 L 146.667969 97.5 L 146.667969 100 Z M 146.667969 102.332031 L 146.667969 104.832031 L 133.5 104.832031 L 133.5 102.332031 Z M 141.5 92.332031 L 141.5 95 L 133.667969 95 L 133.667969 92.5 L 141.5 92.5 Z M 133.667969 90 L 133.667969 87.5 L 141.5 87.5 L 141.5 90 Z M 132 67.5 L 146.667969 67.5 L 146.667969 70 L 131.167969 70 Z M 130.167969 72.5 L 146.667969 72.5 L 146.667969 75 L 129.332031 75 Z M 128.5 77.5 L 141.667969 77.5 L 141.667969 80 L 127.667969 80 Z M 126 84.667969 L 126.832031 82.5 L 141.667969 82.5 L 141.667969 85 L 133.832031 85 L 133.832031 83.5 L 133.167969 85 L 118.832031 85 L 118.332031 83.5 L 118.332031 85 L 110.5 85 L 110.5 82.5 L 125.332031 82.5 Z M 124.167969 100 L 123.167969 97.5 L 128.667969 97.5 L 127.832031 100 Z M 127 102.332031 L 126 104.832031 L 125.832031 104.832031 L 125 102.332031 Z M 122.332031 95 L 121.332031 92.5 L 130.5 92.5 L 129.667969 95 Z M 120.667969 90 L 119.667969 87.5 L 132.332031 87.5 L 131.332031 90 Z M 105.332031 100 L 105.332031 97.5 L 118.332031 97.5 L 118.332031 100 Z M 118.167969 102.332031 L 118.167969 104.832031 L 105.167969 104.832031 L 105.167969 102.332031 Z M 110.332031 95 L 110.332031 92.5 L 118.167969 92.5 L 118.167969 95 Z M 110.332031 90 L 110.332031 87.5 L 118.167969 87.5 L 118.167969 90 Z M 124.332031 80 L 110.332031 80 L 110.332031 77.5 L 123.332031 77.5 Z M 105.167969 67.5 L 119.832031 67.5 L 120.832031 70 L 105.167969 70 Z M 105.167969 72.5 L 121.667969 72.5 L 122.5 75 L 105.167969 75 Z M 79.332031 90 L 79.332031 87.5 L 99.5 87.5 C 99.5 87.5 101.167969 88.832031 101.667969 90 Z M 87.167969 92.332031 L 87.167969 95 L 79.332031 95 L 79.332031 92.5 L 87.167969 92.5 Z M 101.667969 82.5 C 101.167969 83.667969 99.5 85 99.5 85 L 79.332031 85 L 79.332031 82.5 Z M 79.332031 80 L 79.332031 77.5 L 87.167969 77.5 L 87.167969 80 Z M 94.832031 92.332031 L 102.667969 92.332031 C 102.667969 92.332031 103.167969 93.667969 103.167969 94.832031 L 94.832031 94.832031 Z M 102.832031 80 L 95 80 L 95 77.5 L 103.332031 77.5 C 103.332031 78.667969 102.832031 80 102.832031 80 Z M 74.167969 67.5 L 93.832031 67.5 C 97.332031 67.5 100 70 100 70 L 74.167969 70 Z M 74.167969 72.5 L 102.167969 72.5 C 102.832031 73.167969 103.167969 75 103.167969 75 L 74.167969 75 Z M 74.167969 97.332031 L 103 97.332031 C 103 97.332031 102.667969 99.332031 102 99.832031 L 74.167969 99.832031 Z M 74.167969 102.332031 L 100 102.332031 C 100 102.332031 97.332031 104.832031 93.832031 104.832031 L 74.167969 104.832031 Z M 53.5 100 L 53.5 97.5 L 71.667969 97.5 L 71.667969 100 Z M 71.667969 102.332031 L 71.667969 104.832031 L 53.5 104.832031 L 53.5 102.332031 Z M 66.5 82.5 L 66.5 85 L 58.667969 85 L 58.667969 82.5 Z M 58.667969 80 L 58.667969 77.5 L 66.5 77.5 L 66.5 80 Z M 66.5 87.5 L 66.5 90 L 58.667969 90 L 58.667969 87.5 Z M 66.5 92.332031 L 66.5 95 L 58.667969 95 L 58.667969 92.5 L 66.5 92.5 Z M 53.5 67.5 L 71.667969 67.5 L 71.667969 70 L 53.5 70 Z M 53.5 72.5 L 71.667969 72.5 L 71.667969 75 L 53.5 75 Z M 150.667969 148.332031 C 150.667969 156.5 144 163.167969 135.832031 163.167969 L 64.332031 163.167969 C 56.167969 163.167969 49.5 156.5 49.5 148.332031 L 49.5 112.5 L 150.667969 112.5 Z M 150.667969 148.332031 "/>
</g>
</svg>
