<?xml version="1.0" encoding="UTF-8"?>
<svg xmlns="http://www.w3.org/2000/svg" xmlns:xlink="http://www.w3.org/1999/xlink" width="100px" height="200px" viewBox="0 0 200 200" version="1.1">
<g id="surface1">
<path d="M 53.617188 68.476562 C 53.875 68.355469 54.136719 68.242188 54.398438 68.144531 C 54.144531 68.242188 53.882812 68.363281 53.617188 68.476562 Z M 15.601562 138.585938 L 16.386719 138.585938 C 18.710938 138.585938 19.367188 138.585938 22.042969 138.585938 L 24.148438 138.585938 C 24.3125 138.585938 24.476562 138.585938 24.636719 138.585938 C 24.820312 138.585938 25.011719 138.585938 25.207031 138.585938 C 25.207031 138.585938 25.238281 138.585938 25.242188 138.585938 C 25.324219 138.585938 25.40625 138.585938 25.480469 138.585938 C 25.511719 138.585938 25.511719 138.585938 25.539062 138.585938 C 25.570312 138.585938 25.605469 138.625 25.644531 138.617188 C 40.507812 137.855469 47.394531 130.167969 50.855469 119.09375 C 53.550781 110.5 55.757812 103.269531 57.695312 97.195312 C 57.695312 97.195312 57.695312 97.199219 57.695312 97.199219 C 57.71875 97.125 57.738281 97.054688 57.761719 96.980469 C 62.429688 90.429688 67.257812 84.773438 71.605469 80.1875 C 71.605469 80.1875 71.707031 80.1875 71.707031 80.1875 C 78.363281 100.542969 80.929688 136.863281 100.398438 136.863281 C 101.1875 136.863281 102.007812 136.882812 102.800781 136.800781 C 102.007812 136.882812 101.238281 136.988281 100.449219 136.988281 L 115.914062 136.988281 C 114.820312 136.988281 113.78125 136.824219 112.78125 136.617188 C 112.148438 136.488281 111.539062 136.292969 110.9375 136.085938 C 111.539062 136.289062 112.148438 136.445312 112.789062 136.570312 C 113.789062 136.773438 114.824219 136.867188 115.914062 136.867188 C 118.78125 136.867188 121.175781 136.648438 123.261719 135.96875 C 121.175781 136.648438 118.78125 136.980469 115.914062 136.980469 L 131.039062 136.980469 C 131.167969 136.980469 131.300781 136.980469 131.425781 136.980469 C 131.425781 136.980469 131.429688 136.980469 131.4375 136.980469 L 131.445312 136.949219 L 137.148438 136.894531 C 136.417969 136.894531 135.738281 136.761719 135.082031 136.542969 C 135.085938 136.53125 135.101562 136.523438 135.105469 136.511719 C 135.75 136.707031 136.417969 136.742188 137.136719 136.742188 C 152.15625 136.742188 167.300781 109.773438 192.355469 64.976562 L 182.519531 64.976562 L 182.523438 65.375 L 180.695312 65.375 C 171.457031 81.773438 165 95.789062 159.523438 106.988281 C 165.007812 95.773438 171.457031 81.773438 180.6875 65.375 L 167.179688 65.375 C 166.925781 65.375 166.667969 65.375 166.414062 65.375 C 166.167969 65.375 165.925781 65.375 165.6875 65.375 L 165.65625 65.375 C 165.15625 65.375 164.675781 65.304688 164.195312 65.335938 C 164.195312 65.34375 164.1875 65.292969 164.1875 65.304688 C 149.679688 66.179688 142.894531 73.542969 139.480469 84.476562 C 133.507812 103.574219 129.886719 115.9375 126.40625 123.832031 C 126.40625 123.832031 126.40625 123.824219 126.40625 123.832031 C 126.40625 123.851562 126.394531 123.851562 126.394531 123.855469 L 126.394531 123.835938 C 124.792969 125.398438 123.132812 126.824219 121.507812 128.117188 C 120.65625 128.792969 119.804688 129.429688 118.949219 130.03125 C 119.664062 130.886719 120.394531 131.6875 121.164062 132.417969 C 122.324219 133.550781 123.570312 134.5 124.925781 135.230469 C 124.925781 135.230469 124.917969 135.230469 124.917969 135.230469 C 123.5625 134.5 122.320312 133.550781 121.148438 132.417969 C 120.382812 131.6875 119.65625 130.886719 118.9375 130.03125 C 119.792969 129.429688 120.636719 128.789062 121.488281 128.113281 C 116.804688 117.742188 114.085938 100.125 109.042969 86.40625 C 114.085938 100.117188 116.8125 117.742188 121.488281 128.113281 C 123.113281 126.820312 124.738281 125.394531 126.367188 123.832031 C 119.605469 103.570312 117.179688 66.730469 97.582031 66.730469 C 96.199219 66.730469 94.804688 66.863281 93.417969 67.113281 C 94.804688 66.855469 96.199219 66.726562 97.582031 66.726562 L 89.875 66.617188 C 91.101562 66.617188 92.257812 66.960938 93.355469 66.960938 C 92.257812 66.960938 91.101562 66.617188 89.882812 66.617188 C 89.773438 66.617188 89.667969 66.59375 89.5625 66.601562 C 89.667969 66.601562 89.773438 66.5625 89.882812 66.5625 L 58.882812 66.5625 C 58.707031 66.5625 58.53125 66.539062 58.351562 66.539062 C 41.4375 66.539062 18.132812 98.15625 7.632812 138.5625 C 7.632812 138.5625 8.394531 138.5625 9.648438 138.5625 C 11.101562 138.5625 15.585938 138.5625 15.585938 138.5625 Z M 163.507812 66.71875 C 158.460938 68.304688 154.75 71.054688 151.992188 74.699219 C 154.75 71.054688 158.457031 68.304688 163.507812 66.71875 Z M 139.804688 134.632812 C 139.757812 134.65625 139.710938 134.679688 139.664062 134.707031 C 139.59375 134.742188 139.519531 134.773438 139.449219 134.8125 C 139.445312 134.8125 139.4375 134.820312 139.4375 134.820312 C 139.5625 134.757812 139.679688 134.695312 139.804688 134.636719 Z M 137.75 135.542969 C 137.78125 135.519531 137.8125 135.519531 137.851562 135.507812 C 137.820312 135.523438 137.789062 135.53125 137.757812 135.542969 C 137.6875 135.574219 137.617188 135.59375 137.550781 135.617188 C 137.617188 135.59375 137.679688 135.570312 137.75 135.542969 Z M 137.507812 135.644531 C 137.507812 135.644531 137.5 135.644531 137.5 135.644531 C 137.5 135.644531 137.5 135.644531 137.507812 135.644531 Z M 135.945312 136.167969 C 136.0625 136.132812 136.167969 136.101562 136.28125 136.070312 C 136.335938 136.042969 136.394531 136.023438 136.449219 136.011719 C 136.519531 135.988281 136.582031 135.96875 136.636719 135.945312 C 136.707031 135.917969 136.773438 135.90625 136.832031 135.882812 C 136.886719 135.855469 136.9375 135.84375 136.992188 135.820312 C 137.125 135.769531 137.257812 135.730469 137.394531 135.679688 C 137.414062 135.679688 137.429688 135.675781 137.445312 135.664062 C 137.429688 135.667969 137.414062 135.675781 137.398438 135.679688 C 137.269531 135.730469 137.136719 135.769531 137.007812 135.820312 C 136.949219 135.84375 136.894531 135.855469 136.84375 135.875 C 136.789062 135.898438 136.71875 135.917969 136.648438 135.9375 C 136.59375 135.960938 136.523438 135.976562 136.457031 136.007812 C 136.398438 136.03125 136.34375 136.039062 136.289062 136.0625 C 136.167969 136.09375 136.0625 136.125 135.949219 136.164062 C 135.945312 136.164062 135.929688 136.167969 135.925781 136.167969 C 135.929688 136.167969 135.9375 136.164062 135.945312 136.164062 Z M 54.398438 68.1875 L 54.398438 68.136719 C 54.398438 68.136719 54.4375 68.1875 54.445312 68.1875 C 54.113281 68.1875 53.789062 68.417969 53.460938 68.554688 C 53.511719 68.53125 53.570312 68.5 53.617188 68.480469 C 53.355469 68.59375 53.09375 68.710938 52.832031 68.835938 C 52.695312 68.90625 52.550781 68.96875 52.414062 69.042969 Z M 55.199219 67.789062 Z M 57.445312 67.113281 C 57.398438 67.136719 57.367188 67.230469 57.332031 67.230469 C 57.054688 67.300781 56.78125 67.375 56.507812 67.449219 C 56.476562 67.449219 56.449219 67.476562 56.414062 67.480469 C 56.335938 67.5 56.261719 67.523438 56.179688 67.550781 C 56.261719 67.523438 56.335938 67.480469 56.414062 67.46875 C 56.449219 67.46875 56.480469 67.4375 56.507812 67.4375 C 56.78125 67.363281 57.054688 67.289062 57.332031 67.21875 C 57.367188 67.21875 57.398438 67.105469 57.445312 67.105469 C 57.519531 67.082031 57.59375 66.980469 57.675781 66.976562 C 57.59375 66.980469 57.519531 67.105469 57.445312 67.117188 Z M 57.804688 67.074219 C 57.769531 67.101562 57.726562 67.125 57.6875 67.136719 C 57.726562 67.113281 57.761719 67.070312 57.804688 67.054688 C 57.886719 67.03125 57.960938 66.96875 58.050781 66.96875 C 57.960938 66.96875 57.886719 67.0625 57.804688 67.074219 Z M 60.824219 66.976562 C 60.675781 66.949219 60.53125 66.960938 60.386719 66.960938 C 60.382812 66.960938 60.375 66.960938 60.375 66.960938 C 60.519531 66.960938 60.664062 66.945312 60.8125 66.960938 C 60.832031 66.960938 60.84375 66.957031 60.863281 66.957031 C 60.851562 66.960938 60.84375 66.976562 60.824219 66.976562 Z M 61.210938 66.78125 C 60.851562 66.78125 60.492188 66.855469 60.125 66.882812 C 60.175781 66.882812 60.226562 66.945312 60.273438 66.957031 C 60.179688 66.945312 60.085938 66.886719 59.992188 66.882812 C 60.039062 66.875 60.082031 66.851562 60.125 66.851562 C 60.101562 66.851562 60.101562 66.835938 60.074219 66.835938 C 60.042969 66.8125 60 66.800781 60 66.800781 L 60 66.832031 C 59.601562 66.855469 59.625 66.863281 59.449219 66.882812 L 59.425781 66.851562 C 59.375 66.851562 59.335938 66.875 59.292969 66.875 C 59.226562 66.898438 59.144531 66.898438 59.070312 66.90625 C 59.023438 66.90625 58.980469 66.90625 58.9375 66.929688 C 58.855469 66.957031 58.78125 66.96875 58.707031 66.980469 C 58.699219 66.980469 58.695312 66.988281 58.6875 66.988281 C 58.695312 66.988281 58.699219 66.988281 58.707031 66.988281 C 58.789062 66.988281 58.855469 66.949219 58.9375 66.929688 C 58.980469 66.929688 59.023438 66.898438 59.070312 66.898438 C 59.144531 66.898438 59.21875 66.875 59.292969 66.863281 C 59.332031 66.863281 59.367188 66.863281 59.417969 66.835938 C 59.570312 66.820312 59.71875 66.804688 59.867188 66.792969 C 59.898438 66.792969 59.925781 66.800781 59.957031 66.800781 C 60.382812 66.761719 60.792969 66.75 61.210938 66.75 Z M 62.21875 67.21875 C 61.9375 67.144531 61.648438 67.085938 61.363281 67.039062 C 61.335938 67.039062 61.3125 67.023438 61.289062 67.019531 C 61.304688 67.023438 61.332031 67.03125 61.355469 67.03125 C 61.644531 67.085938 61.929688 67.144531 62.210938 67.21875 C 62.21875 67.21875 62.230469 67.226562 62.238281 67.226562 C 62.230469 67.226562 62.230469 67.226562 62.226562 67.226562 Z M 68.335938 72.105469 C 68.335938 72.105469 68.335938 72.113281 68.332031 72.113281 C 67.449219 70.625 66.480469 69.375 65.40625 68.460938 C 65.417969 68.46875 65.4375 68.480469 65.449219 68.488281 C 66.507812 69.40625 67.457031 70.636719 68.332031 72.113281 Z M 69.710938 74.757812 Z M 85.40625 67.148438 C 86.53125 66.9375 87.664062 66.800781 88.773438 66.75 C 87.65625 66.804688 86.53125 66.9375 85.398438 67.15625 Z M 74.398438 77.789062 C 74.394531 77.769531 74.382812 77.757812 74.375 77.738281 C 74.382812 77.757812 74.394531 77.769531 74.398438 77.789062 Z M 88.804688 68.417969 C 87.03125 69.082031 85.25 69.929688 83.46875 70.96875 C 85.25 69.929688 87.03125 69.082031 88.804688 68.417969 C 90.019531 67.96875 91.226562 67.613281 92.429688 67.34375 C 91.21875 67.613281 90.011719 67.96875 88.804688 68.417969 Z M 93.375 67.144531 Z M 106.898438 135.988281 C 107.632812 135.792969 108.367188 135.5625 109.101562 135.304688 C 108.363281 135.5625 107.632812 135.789062 106.898438 135.988281 Z M 125.851562 134.757812 C 125.804688 134.78125 125.761719 134.800781 125.71875 134.824219 C 125.761719 134.800781 125.8125 134.773438 125.855469 134.75 Z M 129.761719 136.773438 C 127.980469 136.5625 126.386719 136.039062 124.929688 135.25 C 126.386719 136.039062 127.980469 136.5625 129.761719 136.773438 C 130.023438 136.800781 130.28125 136.824219 130.550781 136.84375 C 130.28125 136.824219 130.019531 136.800781 129.761719 136.773438 Z M 129.636719 131.46875 L 129.644531 131.4375 C 129.644531 131.4375 129.644531 131.429688 129.648438 131.429688 C 130.632812 133.101562 131.71875 134.476562 132.945312 135.425781 C 131.71875 134.492188 130.625 133.148438 129.644531 131.46875 Z M 132.425781 136.84375 C 132.375 136.867188 132.332031 136.867188 132.28125 136.867188 C 132.273438 136.867188 132.273438 136.867188 132.269531 136.867188 C 132.320312 136.867188 132.367188 136.867188 132.414062 136.84375 C 132.507812 136.84375 132.601562 136.84375 132.699219 136.820312 C 132.707031 136.820312 132.710938 136.820312 132.710938 136.820312 C 132.613281 136.84375 132.519531 136.84375 132.425781 136.84375 Z M 133.605469 136.710938 C 133.5 136.730469 133.386719 136.738281 133.273438 136.761719 C 133.242188 136.761719 133.210938 136.789062 133.179688 136.789062 C 133.179688 136.789062 133.15625 136.789062 133.15625 136.789062 C 133.054688 136.800781 132.949219 136.820312 132.851562 136.820312 C 132.84375 136.820312 132.835938 136.820312 132.835938 136.820312 C 132.9375 136.820312 133.042969 136.792969 133.144531 136.789062 L 133.167969 136.789062 C 133.199219 136.789062 133.230469 136.761719 133.261719 136.761719 C 133.375 136.738281 133.488281 136.726562 133.59375 136.710938 C 133.605469 136.710938 133.613281 136.710938 133.617188 136.710938 C 133.613281 136.710938 133.613281 136.710938 133.605469 136.710938 Z M 133.605469 136.710938 "/>
</g>
</svg>
