<?xml version="1.0" encoding="UTF-8"?>
<svg xmlns="http://www.w3.org/2000/svg" xmlns:xlink="http://www.w3.org/1999/xlink" width="100px" height="200px" viewBox="0 0 200 200" version="1.1">
<g id="surface1">
<path d="M 196.214844 91.082031 L 108.890625 3.765625 C 103.851562 -1.253906 95.699219 -1.253906 90.660156 3.765625 L 72.566406 21.890625 L 95.566406 44.890625 C 101.101562 43.015625 107.222656 44.453125 111.34375 48.601562 C 115.464844 52.746094 116.867188 58.875 114.957031 64.398438 L 137.109375 86.566406 C 143.859375 84.21875 151.335938 86.851562 155.125 92.914062 C 158.914062 98.976562 158.007812 106.851562 152.941406 111.890625 C 150.070312 114.769531 146.171875 116.382812 142.109375 116.382812 C 138.042969 116.382812 134.148438 114.769531 131.273438 111.890625 C 126.917969 107.523438 125.59375 100.976562 127.910156 95.257812 L 107.167969 74.625 L 107.167969 129 C 108.632812 129.714844 110.015625 130.691406 111.234375 131.898438 C 117.171875 137.902344 117.171875 147.566406 111.234375 153.566406 C 105.230469 159.574219 95.492188 159.574219 89.492188 153.566406 C 86.613281 150.699219 84.996094 146.804688 84.996094 142.742188 C 84.996094 138.679688 86.613281 134.785156 89.492188 131.917969 C 91.007812 130.417969 92.714844 129.285156 94.535156 128.535156 L 94.535156 73.625 C 90.753906 72.082031 87.75 69.089844 86.191406 65.316406 C 84.632812 61.542969 84.648438 57.304688 86.234375 53.542969 L 63.632812 30.832031 L 3.75 90.675781 C -1.25 95.714844 -1.25 103.875 3.75 108.917969 L 91.082031 196.226562 C 96.113281 201.257812 104.269531 201.257812 109.300781 196.226562 L 196.214844 109.308594 C 198.636719 106.894531 200 103.617188 200 100.195312 C 200 96.777344 198.636719 93.496094 196.214844 91.082031 "/>
</g>
</svg>
