<?xml version="1.0" encoding="UTF-8"?>
<svg xmlns="http://www.w3.org/2000/svg" xmlns:xlink="http://www.w3.org/1999/xlink" width="100px" height="150px" viewBox="0 0 300 150" version="1.1">
<g id="surface1">
<path d="M 149.960938 0 C 149.960938 0 128.9375 34.910156 118.945312 51.886719 C 117.019531 52.609375 116.804688 52.40625 114.6875 54.480469 C 109.570312 48.601562 103.476562 53.964844 101.835938 57.25 C 101.125 50.144531 99.945312 50.140625 98.355469 48.546875 C 99.273438 42.332031 102.304688 32.207031 95.335938 24.945312 C 81.859375 15.835938 66.265625 38.105469 57.574219 49.769531 L 52.886719 57.558594 C 33.5625 57.164062 18.34375 57.667969 0 57.296875 C 22.371094 65.695312 23.296875 65.890625 50.324219 76.167969 C 50.324219 76.996094 52.34375 80.824219 54.566406 83.074219 C 56.414062 84.945312 58.429688 86.003906 59.433594 86.628906 C 58.113281 87.308594 55.425781 88.367188 54.628906 89.859375 C 50.972656 96.699219 56.359375 98.277344 59.847656 103.726562 C 63.78125 110.847656 64.628906 115.558594 73.921875 111.5625 C 77.105469 110.191406 80.945312 109.699219 83.398438 108.933594 C 74.742188 122.625 72.515625 126.367188 57.359375 149.9375 L 57.511719 149.984375 C 118.140625 126.273438 119.691406 125.660156 149.671875 113.785156 C 192.773438 130.546875 195.246094 131.925781 242.578125 150 C 235.96875 139.660156 231.449219 133.179688 226.644531 125.007812 C 228.539062 124.855469 232.683594 124.4375 236.367188 122.089844 C 239.027344 120.398438 242.148438 118.492188 244.960938 114.898438 C 250.496094 107.832031 251.851562 98.914062 249.828125 87.773438 C 248.867188 82.476562 246.894531 77.328125 247.171875 77.140625 C 272.9375 67.390625 275.96875 66.332031 300 57.25 C 271.125 57.671875 269.730469 57.386719 242.609375 57.449219 C 242.167969 52.269531 239.566406 49.601562 231.589844 49.859375 C 228.605469 50.351562 226.730469 51.371094 225.332031 55.441406 C 220.871094 47.203125 214.710938 49.625 212.097656 53.679688 C 208.652344 50.152344 200.628906 48.964844 196.589844 51.546875 C 193.617188 50.152344 190.160156 50.144531 187.128906 53.769531 C 184.933594 51.9375 184.257812 51.417969 179.449219 49.488281 C 168.378906 30.734375 159.171875 15.773438 149.960938 0 Z M 150.113281 10.046875 C 154.488281 16.738281 169.507812 42.726562 173.222656 48.546875 C 169.011719 48.832031 164.871094 51.074219 161.746094 55.578125 C 159.039062 52.785156 155.875 50.011719 150.285156 49.789062 C 143.492188 48.617188 139.867188 51.640625 135.292969 56.894531 C 133.933594 52.332031 128.671875 51.253906 124.089844 53.398438 C 128.171875 46.894531 147.484375 14.292969 150.113281 10.046875 Z M 93.105469 39.027344 C 92.476562 56.988281 79.757812 72.988281 70.636719 67.140625 C 63.75 61.523438 72.5 47.304688 78.011719 42.289062 C 77.601562 46.121094 81.082031 48.515625 78.300781 51.917969 C 72.730469 58.730469 74.921875 63.644531 77.324219 64.40625 C 83.734375 66.433594 89.871094 49.035156 89.871094 36.832031 C 89.871094 29.007812 85.300781 29.152344 76.300781 38.53125 C 64.015625 51.339844 57.382812 63.738281 61.800781 72.242188 C 64.261719 76.976562 67.863281 80.386719 73.78125 79.675781 C 85.34375 78.289062 92.320312 63.960938 93.074219 54.777344 C 94.917969 54.730469 94.433594 54.886719 94.921875 54.511719 C 94.921875 56.132812 97.140625 63.96875 98.890625 69.117188 C 101.179688 77.910156 110.941406 95.546875 81.78125 102.410156 C 76.265625 103.804688 74.097656 104.265625 68.652344 106.414062 C 65.984375 100.878906 65.359375 99.089844 59.9375 93.742188 C 67.292969 91.167969 67.34375 91.421875 72.089844 89.769531 C 90.429688 83.375 95.941406 77.910156 95.304688 70.109375 C 95.304688 70.109375 95.527344 66.085938 92.984375 62.734375 C 91.699219 67.222656 89.320312 70.820312 89.320312 70.820312 C 83.867188 79.335938 73.128906 84.609375 63.585938 81.25 C 58.367188 79.414062 56.125 75.414062 56.125 68.53125 C 56.125 59.734375 76.140625 34.273438 85.960938 29.953125 C 92.902344 27.886719 93.199219 33.621094 93.105469 39.027344 Z M 174.382812 55.316406 C 177.628906 55.378906 181.175781 56.976562 183.570312 59.566406 C 190.996094 67.59375 190.1875 77.316406 185.617188 83.429688 C 180.179688 90.707031 166.464844 87.480469 163.226562 77.3125 C 161.71875 72.585938 164.410156 60.882812 169.164062 56.96875 C 170.597656 55.789062 172.433594 55.28125 174.382812 55.316406 Z M 147.976562 56.136719 C 148.457031 56.148438 148.949219 56.21875 149.441406 56.351562 C 155.726562 56.734375 157.058594 60.261719 158.203125 63.371094 C 161.089844 71.199219 160.367188 78.535156 154.433594 84.542969 C 145.546875 93.542969 135.195312 89.566406 135.234375 77.433594 C 135.417969 68.808594 140.78125 55.960938 147.976562 56.136719 Z M 171.332031 56.613281 C 166.539062 60.207031 165.917969 69.425781 170.324219 72.84375 C 172.054688 74.464844 173.015625 75.589844 177.984375 76.042969 C 181.398438 76.355469 186.78125 72.886719 187.050781 69.445312 C 187.171875 67.886719 186.894531 65.277344 183.144531 61.050781 C 180.003906 57.511719 175.914062 56.6875 174.886719 57.296875 C 171.582031 59.253906 175.152344 60.808594 176.445312 62.101562 C 178.472656 64.132812 178.960938 65.023438 178.015625 65.625 C 176.136719 66.828125 174.046875 66.65625 173.359375 66.335938 C 172.054688 65.730469 167.667969 63.257812 171.332031 56.613281 Z M 218.3125 56.644531 C 220.398438 59.902344 221 60.609375 223.332031 68.734375 C 226.34375 79.222656 230.167969 83.300781 233.542969 81.390625 C 242.792969 76.15625 235.382812 62.894531 232.125 56.660156 C 234.210938 56.632812 233.796875 56.75 235.695312 56.722656 C 237.199219 62.621094 236.777344 61.574219 240.792969 79.429688 C 245.597656 100.792969 246.316406 106.480469 234.183594 116.074219 C 228.609375 120.484375 220.398438 120.714844 213.351562 120.324219 L 205.398438 119.148438 C 210.878906 115.546875 212.207031 112.175781 212.175781 105.164062 C 228.148438 111.871094 236.660156 106.816406 240.0625 98.578125 C 241.699219 94.609375 241.128906 89.375 239.558594 80.15625 C 239.65625 87.667969 239.492188 89.054688 238.503906 92.765625 C 236.519531 100.21875 231.660156 102.296875 228.355469 97.015625 C 227.082031 94.984375 224.039062 88.238281 223.105469 80.972656 C 222.167969 73.710938 221.453125 63.492188 216.84375 59.226562 C 217.347656 58.222656 217.871094 57.09375 218.3125 56.644531 Z M 202.726562 56.769531 C 205.953125 57.628906 209.875 59.332031 211.984375 63.289062 C 214.898438 68.75 216.828125 71.65625 216.671875 81.414062 C 216.5 91.824219 212.414062 94.621094 209.71875 95.007812 C 206.234375 95.507812 200.195312 95.4375 196.605469 74.992188 C 195.417969 68.21875 193.25 61.773438 190.972656 59.660156 C 192.105469 58.292969 192.191406 58.464844 193.035156 57.109375 C 194.179688 58.363281 195.167969 60.484375 196.757812 66.847656 C 199.289062 76.96875 201.597656 79.058594 206.070312 79.628906 C 213.054688 80.523438 215.800781 69.851562 210.054688 62.195312 C 208.792969 60.515625 205.492188 58.351562 203.757812 59.246094 C 203.859375 62.195312 205.175781 61.269531 205.191406 63.222656 C 204.863281 65.542969 204.527344 65.960938 203.78125 67.234375 C 202.003906 66.535156 201.144531 66.257812 199.59375 63.585938 C 197.636719 59.707031 198.910156 56.066406 202.726562 56.769531 Z M 145.261719 57.726562 C 141.972656 60.046875 137.84375 67.742188 141.460938 74.636719 C 143.246094 77.199219 145.171875 79.296875 149.441406 78.394531 C 152.496094 77.746094 157.828125 74.136719 158.570312 69.011719 C 159.207031 64.617188 152.867188 56.136719 149.335938 58.113281 C 145.246094 60.402344 147.742188 62.046875 150.265625 64.511719 C 152.578125 66.769531 150.917969 68.128906 149.304688 68.792969 C 146.078125 70.125 144.269531 68.828125 143.460938 66.257812 C 142.652344 63.691406 143.347656 61.5 145.261719 57.726562 Z M 109.421875 58.53125 C 110.125 60.6875 110.6875 63.554688 112.15625 66.335938 C 112.5 66.625 113.796875 66.351562 115.511719 64.375 C 116.59375 63.128906 117.820312 61.394531 119.96875 58.578125 C 121.277344 59.773438 121.394531 60.660156 121.753906 61.3125 C 122.660156 62.941406 124.5625 62.8125 125.160156 62.644531 C 127.261719 60.558594 127.597656 59.203125 128.988281 59.027344 C 129.121094 61.722656 129.25 63.402344 125.769531 67.496094 C 123.730469 69.894531 120.605469 69.949219 119.511719 69.644531 C 118.007812 69.222656 117.03125 68.292969 114.65625 67.082031 C 111.429688 67.578125 112.285156 71.023438 112.855469 73.925781 C 114.367188 81.578125 119.121094 84.625 123.265625 82.378906 C 124.707031 81.597656 124.378906 81.601562 127.160156 80.464844 C 126.691406 85.320312 126.414062 86.261719 127.28125 91.683594 C 120.519531 95.457031 115.015625 94.804688 113.511719 85.347656 C 112.371094 77.421875 110.25 67.808594 108.324219 65.859375 C 106.507812 64.015625 105.757812 63.414062 105.757812 63.414062 C 105.757812 63.414062 108.035156 60.386719 109.421875 58.53125 Z M 20.5 59.550781 C 29.910156 59.667969 40.523438 59.671875 51.820312 59.769531 C 50.195312 63.746094 49.640625 66.535156 49.40625 70.464844 C 44.132812 68.417969 25.953125 61.898438 20.5 59.550781 Z M 279.53125 59.675781 C 267.070312 64.175781 258.097656 67.660156 246.074219 72.257812 C 244.757812 66.613281 244.519531 64.890625 243.34375 59.800781 C 263.351562 59.742188 263.6875 59.769531 279.53125 59.675781 Z M 192.316406 85.238281 C 193.625 90.625 195.472656 93.261719 195.472656 93.261719 C 197.996094 97.617188 201.152344 100.085938 205.976562 101.332031 C 207.035156 103.035156 207.410156 103.371094 207.832031 104.289062 C 208.289062 110.015625 207.960938 110.726562 203.519531 113.988281 C 200.914062 116.542969 200.800781 120.207031 203.488281 123.617188 C 206.378906 126.363281 209.417969 127.351562 220.675781 124.421875 C 222.851562 128.167969 225.894531 132.597656 230.367188 139.660156 C 215.300781 133.96875 194.519531 125.847656 149.992188 108.484375 C 149.992188 108.484375 97.886719 128.753906 69.953125 139.675781 C 81.636719 121.207031 82.597656 119.652344 90.90625 106.722656 C 93.722656 105.625 92.773438 106.074219 95.273438 104.792969 C 101.011719 101.730469 105.617188 97.164062 108.125 90.449219 C 112.722656 100.839844 117.859375 102.03125 128.578125 98.65625 C 130.789062 97.636719 133.328125 96.144531 133.875 92.164062 C 139.617188 97.34375 151.773438 98.304688 160.644531 87.386719 C 168.296875 96.359375 185.664062 97.210938 192.316406 85.238281 Z M 219.273438 96.058594 C 219.273438 96.058594 219.785156 97.675781 220.082031 98.175781 C 218.8125 98.21875 217.410156 98.191406 217.410156 98.191406 C 218.046875 97.667969 218.558594 97.027344 219.273438 96.058594 Z M 219.273438 96.058594 "/>
</g>
</svg>
