<?xml version="1.0" encoding="UTF-8"?>
<svg xmlns="http://www.w3.org/2000/svg" xmlns:xlink="http://www.w3.org/1999/xlink" width="100px" height="200px" viewBox="0 0 200 200" version="1.1">
<g id="surface1">
<path  d="M 14.9375 0 C 13.097656 0 11.730469 1.496094 11.890625 3.328125 L 27.390625 177.148438 C 27.550781 178.980469 29.132812 180.878906 30.90625 181.371094 L 96.664062 199.628906 C 98.4375 200.121094 101.335938 200.121094 103.105469 199.632812 L 169.066406 181.34375 C 170.835938 180.851562 172.421875 178.949219 172.585938 177.121094 L 188.105469 3.328125 C 188.269531 1.496094 186.898438 0 185.0625 0 Z M 155.105469 39.863281 C 154.957031 41.496094 154.707031 44.332031 154.542969 46.164062 L 154.132812 50.722656 C 153.96875 52.554688 153.734375 55.171875 153.613281 56.539062 C 153.488281 57.910156 153.371094 59.027344 153.351562 59.027344 C 153.328125 59.027344 151.808594 59.027344 149.96875 59.027344 L 103.339844 59.027344 C 101.503906 59.027344 99.984375 59.027344 99.964844 59.027344 C 99.945312 59.027344 98.421875 59.027344 96.585938 59.027344 L 72.027344 59.027344 C 70.191406 59.027344 68.820312 60.527344 68.984375 62.355469 L 70.414062 78.367188 C 70.578125 80.199219 72.21875 81.699219 74.054688 81.699219 L 96.585938 81.699219 C 98.425781 81.699219 99.945312 81.699219 99.964844 81.699219 C 99.984375 81.699219 101.503906 81.699219 103.34375 81.699219 L 142.070312 81.699219 C 143.90625 81.699219 146.753906 81.699219 148.390625 81.699219 C 150.027344 81.699219 151.246094 83.035156 151.097656 84.667969 C 150.949219 86.300781 150.695312 89.136719 150.53125 90.964844 L 145.925781 142.585938 C 145.761719 144.417969 145.554688 146.753906 145.464844 147.785156 C 145.371094 148.8125 143.847656 150.054688 142.078125 150.542969 L 103.222656 161.320312 C 101.449219 161.808594 99.976562 162.214844 99.949219 162.222656 C 99.921875 162.226562 98.453125 161.832031 96.679688 161.339844 L 57.78125 150.546875 C 56.011719 150.054688 54.425781 148.152344 54.265625 146.324219 L 51.761719 118.21875 C 51.597656 116.386719 52.96875 114.890625 54.804688 114.890625 L 58.355469 114.890625 C 60.195312 114.890625 63.203125 114.890625 65.039062 114.890625 L 70.335938 114.890625 C 72.171875 114.890625 73.808594 116.386719 73.972656 118.21875 L 74.957031 129.222656 C 75.117188 131.050781 76.703125 132.941406 78.480469 133.421875 L 96.671875 138.332031 C 98.449219 138.8125 99.90625 139.207031 99.914062 139.207031 C 99.921875 139.207031 101.378906 138.8125 103.15625 138.332031 L 121.382812 133.40625 C 123.15625 132.929688 124.742188 131.039062 124.90625 129.207031 L 126.882812 107.167969 C 127.046875 105.335938 125.679688 103.835938 123.839844 103.835938 L 103.34375 103.835938 C 101.503906 103.835938 99.984375 103.835938 99.964844 103.835938 C 99.945312 103.835938 98.425781 103.835938 96.585938 103.835938 L 53.816406 103.835938 C 51.976562 103.835938 50.339844 102.339844 50.175781 100.507812 L 45.328125 46.164062 C 45.164062 44.332031 44.910156 41.496094 44.765625 39.863281 C 44.617188 38.230469 46.003906 36.894531 47.839844 36.894531 L 96.585938 36.894531 C 98.425781 36.894531 99.945312 36.894531 99.964844 36.894531 C 99.984375 36.894531 101.503906 36.894531 103.34375 36.894531 L 152.027344 36.894531 C 153.867188 36.894531 155.25 38.230469 155.105469 39.863281 Z M 155.105469 39.863281 "/>
</g>
</svg>
