<?xml version="1.0" encoding="UTF-8"?>
<svg xmlns="http://www.w3.org/2000/svg" xmlns:xlink="http://www.w3.org/1999/xlink" width="100px" height="200px" viewBox="0 0 200 200" version="1.1">
<g id="surface1">
<path d="M 12.707031 48.917969 C -5.007812 74.367188 -2.808594 107.464844 10.734375 134.492188 C 11.042969 135.148438 11.382812 135.773438 11.714844 136.398438 C 11.910156 136.832031 12.125 137.234375 12.359375 137.648438 C 12.464844 137.875 12.617188 138.117188 12.75 138.332031 C 12.964844 138.765625 13.199219 139.183594 13.425781 139.601562 L 14.734375 141.816406 C 14.984375 142.226562 15.207031 142.625 15.484375 143.035156 C 15.949219 143.816406 16.484375 144.589844 16.964844 145.375 C 17.183594 145.707031 17.382812 146.023438 17.625 146.351562 C 18.433594 147.621094 19.296875 148.859375 20.207031 150.058594 C 20.859375 150.949219 21.507812 151.816406 22.207031 152.683594 C 22.433594 153 22.691406 153.316406 22.925781 153.640625 L 24.757812 155.882812 C 24.992188 156.132812 25.214844 156.441406 25.457031 156.707031 C 26.273438 157.691406 27.140625 158.648438 28.007812 159.625 L 28.050781 159.675781 C 29.109375 161.011719 30.292969 162.238281 31.589844 163.339844 C 32.257812 164.035156 32.925781 164.714844 33.632812 165.382812 L 34.476562 166.191406 C 35.398438 167.066406 36.332031 167.933594 37.308594 168.765625 C 37.324219 168.765625 37.332031 168.785156 37.351562 168.792969 L 37.824219 169.207031 C 38.675781 169.949219 39.535156 170.691406 40.410156 171.375 L 41.449219 172.25 C 42.160156 172.816406 42.898438 173.359375 43.617188 173.917969 L 44.757812 174.792969 C 45.535156 175.375 46.359375 175.949219 47.148438 176.515625 C 47.441406 176.726562 47.734375 176.933594 48.035156 177.125 L 48.285156 177.316406 L 50.617188 178.859375 L 51.617188 179.523438 C 52.851562 180.308594 54.066406 181.058594 55.285156 181.792969 C 55.625 181.957031 55.984375 182.160156 56.308594 182.359375 C 57.207031 182.875 58.140625 183.398438 59.050781 183.882812 C 59.550781 184.167969 60.066406 184.410156 60.582031 184.667969 C 61.207031 185.015625 61.859375 185.359375 62.535156 185.707031 C 62.695312 185.757812 62.851562 185.820312 63 185.898438 C 63.273438 186.023438 63.535156 186.160156 63.800781 186.292969 C 64.800781 186.792969 65.839844 187.273438 66.925781 187.75 C 67.125 187.832031 67.339844 187.917969 67.558594 188.035156 C 68.757812 188.558594 69.964844 189.058594 71.207031 189.550781 C 71.492188 189.632812 71.792969 189.773438 72.082031 189.882812 C 73.207031 190.308594 74.367188 190.742188 75.507812 191.148438 L 75.925781 191.300781 C 77.207031 191.734375 78.464844 192.148438 79.757812 192.550781 C 80.058594 192.632812 80.367188 192.742188 80.683594 192.824219 C 82.015625 193.226562 83.300781 193.699219 84.632812 193.964844 C 170.242188 209.566406 195.117188 142.492188 195.117188 142.492188 C 174.214844 169.707031 137.132812 176.882812 102 168.898438 C 100.699219 168.601562 99.398438 168.183594 98.082031 167.800781 C 96.496094 167.328125 94.921875 166.824219 93.359375 166.285156 L 92.839844 166.082031 C 91.707031 165.699219 90.617188 165.273438 89.507812 164.851562 C 89.207031 164.726562 88.902344 164.617188 88.589844 164.515625 C 87.359375 164.015625 86.175781 163.507812 84.984375 162.984375 C 84.726562 162.898438 84.507812 162.785156 84.25 162.683594 C 83.242188 162.21875 82.234375 161.746094 81.234375 161.265625 C 80.933594 161.132812 80.636719 160.988281 80.351562 160.832031 C 79.566406 160.464844 78.785156 160.042969 78.015625 159.640625 C 77.488281 159.390625 76.96875 159.121094 76.457031 158.839844 C 75.507812 158.339844 74.566406 157.800781 73.625 157.285156 C 73.339844 157.082031 73.015625 156.917969 72.691406 156.734375 C 71.460938 156.003906 70.242188 155.253906 69.035156 154.484375 C 68.699219 154.277344 68.371094 154.0625 68.050781 153.832031 C 67.164062 153.285156 66.296875 152.710938 65.449219 152.109375 C 65.160156 151.917969 64.890625 151.707031 64.589844 151.5 C 63.761719 150.925781 62.941406 150.335938 62.132812 149.734375 C 61.785156 149.449219 61.410156 149.183594 61.035156 148.898438 C 60.300781 148.316406 59.558594 147.773438 58.824219 147.167969 L 57.839844 146.375 C 56.894531 145.617188 55.964844 144.839844 55.050781 144.042969 C 54.957031 143.945312 54.851562 143.859375 54.742188 143.785156 L 51.851562 141.148438 L 51.015625 140.367188 C 50.332031 139.667969 49.632812 139 48.933594 138.316406 L 48.117188 137.484375 C 47.238281 136.605469 46.378906 135.710938 45.542969 134.792969 L 45.417969 134.660156 C 44.535156 133.691406 43.667969 132.699219 42.808594 131.699219 C 42.582031 131.449219 42.367188 131.167969 42.140625 130.890625 L 40.25 128.582031 C 39.289062 127.347656 38.34375 126.101562 37.417969 124.839844 C 17.933594 98.25 10.882812 61.535156 26.476562 31.425781 M 67.667969 27.484375 C 54.832031 45.910156 55.550781 70.558594 65.550781 90.050781 C 67.203125 93.328125 69.089844 96.484375 71.199219 99.492188 C 73.117188 102.242188 75.234375 105.5 77.808594 107.726562 C 78.699219 108.742188 79.667969 109.726562 80.675781 110.726562 L 81.425781 111.476562 C 82.375 112.390625 83.359375 113.285156 84.339844 114.183594 L 84.476562 114.292969 C 85.597656 115.273438 86.75 116.222656 87.925781 117.140625 C 88.207031 117.332031 88.449219 117.558594 88.726562 117.75 C 89.890625 118.648438 91.074219 119.515625 92.292969 120.382812 L 92.417969 120.457031 C 92.933594 120.832031 93.484375 121.175781 94.066406 121.542969 C 94.300781 121.691406 94.566406 121.890625 94.816406 122.042969 C 95.699219 122.609375 96.566406 123.140625 97.464844 123.683594 C 97.609375 123.742188 97.734375 123.816406 97.867188 123.875 C 98.617188 124.332031 99.433594 124.773438 100.214844 125.183594 C 100.492188 125.351562 100.757812 125.476562 101.050781 125.632812 C 101.601562 125.910156 102.148438 126.199219 102.691406 126.484375 L 102.957031 126.601562 C 104.082031 127.160156 105.234375 127.675781 106.359375 128.183594 C 106.640625 128.300781 106.882812 128.390625 107.125 128.507812 C 108.050781 128.910156 108.992188 129.292969 109.925781 129.648438 C 110.339844 129.792969 110.734375 129.957031 111.125 130.082031 C 111.976562 130.398438 112.875 130.691406 113.707031 130.984375 L 114.875 131.359375 C 116.101562 131.734375 117.332031 132.226562 118.617188 132.441406 C 184.699219 143.382812 200 92.484375 200 92.484375 C 186.226562 112.316406 159.566406 121.757812 131.160156 114.382812 C 129.902344 114.058594 128.652344 113.699219 127.417969 113.300781 C 127.015625 113.183594 126.667969 113.058594 126.285156 112.941406 C 125.417969 112.640625 124.523438 112.359375 123.683594 112.035156 L 122.484375 111.582031 C 121.542969 111.207031 120.589844 110.859375 119.683594 110.457031 C 119.398438 110.332031 119.140625 110.25 118.925781 110.125 C 117.757812 109.601562 116.582031 109.082031 115.441406 108.523438 L 113.726562 107.632812 L 112.734375 107.132812 C 111.984375 106.738281 111.25 106.320312 110.523438 105.882812 C 110.347656 105.796875 110.175781 105.699219 110.007812 105.589844 C 109.125 105.042969 108.199219 104.507812 107.359375 103.941406 C 107.074219 103.785156 106.816406 103.589844 106.550781 103.425781 L 104.816406 102.292969 C 103.617188 101.457031 102.441406 100.558594 101.25 99.683594 C 100.984375 99.441406 100.726562 99.242188 100.464844 99.023438 C 87.976562 89.207031 78.125 75.773438 73.449219 60.582031 C 68.535156 44.773438 69.617188 27.058594 78.117188 12.667969 M 113.882812 11.441406 C 106.308594 22.558594 105.582031 36.359375 110.800781 48.609375 C 116.339844 61.632812 127.667969 71.859375 140.867188 76.691406 C 141.410156 76.898438 141.933594 77.074219 142.5 77.273438 L 143.234375 77.5 C 144 77.75 144.773438 78.023438 145.566406 78.199219 C 182.074219 85.242188 191.957031 59.449219 194.617188 55.667969 C 185.925781 68.148438 171.351562 71.140625 153.464844 66.792969 C 152.007812 66.425781 150.574219 65.980469 149.167969 65.457031 C 147.414062 64.84375 145.695312 64.136719 144.015625 63.339844 C 140.839844 61.804688 137.820312 59.964844 135 57.839844 C 118.984375 45.699219 109.058594 22.542969 119.507812 3.675781 "/>
</g>
</svg>
