<?xml version="1.0" encoding="UTF-8"?>
<svg xmlns="http://www.w3.org/2000/svg" xmlns:xlink="http://www.w3.org/1999/xlink" width="100px" height="200px" viewBox="0 0 200 200" version="1.1">
<g id="surface1">
<path d="M 12.5 12.5 L 12.5 187.5 L 187.5 187.5 L 187.5 12.5 Z M 107.738281 148.980469 C 107.738281 166.011719 97.738281 173.789062 83.167969 173.789062 C 70.007812 173.789062 62.386719 166.992188 58.480469 158.75 L 71.882812 150.664062 C 74.460938 155.230469 76.804688 159.101562 82.46875 159.101562 C 87.855469 159.101562 91.292969 156.988281 91.292969 148.75 L 91.292969 92.851562 L 107.738281 92.851562 Z M 146.636719 173.789062 C 131.363281 173.789062 121.480469 166.523438 116.675781 156.988281 L 130.074219 149.257812 C 133.59375 155 138.199219 159.257812 146.289062 159.257812 C 153.082031 159.257812 157.460938 155.855469 157.460938 151.132812 C 157.460938 145.507812 153.007812 143.511719 145.46875 140.195312 L 141.367188 138.4375 C 129.492188 133.398438 121.644531 127.03125 121.644531 113.632812 C 121.644531 101.289062 131.054688 91.914062 145.707031 91.914062 C 156.175781 91.914062 163.675781 95.542969 169.070312 105.074219 L 156.257812 113.28125 C 153.445312 108.242188 150.394531 106.25 145.667969 106.25 C 140.867188 106.25 137.820312 109.300781 137.820312 113.28125 C 137.820312 118.207031 140.867188 120.195312 147.9375 123.28125 L 152.039062 125.039062 C 166.023438 131.011719 173.875 137.148438 173.875 150.894531 C 173.875 165.664062 162.230469 173.78125 146.644531 173.78125 Z M 146.636719 173.789062 "/>
</g>
</svg>
