<?xml version="1.0" encoding="UTF-8"?>
<svg xmlns="http://www.w3.org/2000/svg" xmlns:xlink="http://www.w3.org/1999/xlink" width="100px" height="200px" viewBox="0 0 200 200" version="1.1">
<g id="surface1">
<path d="M 201.074219 195.101562 L 196.839844 191.066406 C 194.75 188.308594 192.523438 185.867188 190.101562 183.640625 L 190.058594 183.609375 C 187.570312 181.347656 184.984375 179.195312 182.300781 177.160156 C 180.148438 175.679688 177.195312 173.898438 173.433594 171.816406 C 170.339844 170.425781 167.925781 167.984375 166.617188 164.949219 L 166.582031 164.867188 L 166.183594 164.667969 C 167.949219 164.492188 169.566406 164.167969 171.117188 163.707031 L 170.925781 163.757812 L 175.675781 162.449219 C 177.640625 161.832031 179.917969 161.433594 182.273438 161.339844 L 182.324219 161.339844 C 184.808594 161.242188 187.148438 160.839844 189.382812 160.183594 L 189.175781 160.234375 C 190.253906 159.964844 191.359375 159.664062 192.5 159.324219 C 193.640625 158.984375 194.613281 158.683594 195.425781 158.417969 L 195.425781 157.007812 C 194.621094 155.804688 193.644531 154.425781 192.5 152.875 C 191.410156 151.390625 190.183594 150.101562 188.808594 148.976562 L 188.765625 148.941406 C 185.273438 145.851562 181.652344 142.863281 177.910156 139.976562 C 174.609375 137.398438 170.867188 134.773438 166.984375 132.339844 L 166.417969 132.007812 C 164.367188 130.660156 162.015625 129.410156 159.542969 128.382812 L 159.257812 128.285156 C 156.769531 127.273438 154.316406 126.164062 151.898438 124.957031 C 151.089844 124.558594 150.148438 124.207031 149.175781 123.964844 L 149.082031 123.949219 C 148.109375 123.75 147.273438 123.25 146.667969 122.542969 L 146.660156 122.535156 C 145.507812 121.015625 144.5 119.292969 143.699219 117.457031 L 143.632812 117.292969 C 142.828125 115.410156 141.957031 113.601562 141.015625 111.867188 C 139 107.964844 137.050781 104.003906 135.167969 99.976562 C 133.285156 95.945312 131.476562 91.914062 129.742188 87.875 C 128.535156 85.1875 127.429688 82.5 126.417969 79.816406 C 125.300781 76.867188 124.042969 74.339844 122.574219 71.964844 L 122.683594 72.160156 C 119.082031 66.023438 115.492188 60.792969 111.589844 55.816406 L 111.824219 56.132812 C 107.964844 51.265625 103.964844 46.917969 99.667969 42.882812 L 99.601562 42.824219 C 95.359375 38.839844 90.792969 35.042969 86 31.523438 L 85.589844 31.234375 C 80.613281 27.617188 75.167969 24.054688 69.257812 20.550781 C 66.882812 19.148438 64.125 18.007812 61.214844 17.273438 L 61 17.226562 L 51.726562 14.910156 L 46.484375 14.507812 C 44.738281 14.375 42.992188 14.308594 41.242188 14.308594 C 40.007812 13.660156 38.949219 12.882812 38.015625 11.984375 C 37.101562 11.109375 36.109375 10.285156 35.074219 9.523438 L 34.992188 9.464844 C 29.949219 6.523438 24.089844 3.832031 17.964844 1.714844 L 17.257812 1.5 C 15.648438 0.558594 13.714844 0.0078125 11.660156 0.0078125 C 10.191406 0.0078125 8.785156 0.292969 7.5 0.800781 L 7.574219 0.773438 C 4.410156 2.035156 1.992188 4.589844 0.949219 7.773438 L 0.925781 7.859375 C 0.316406 9.292969 -0.0351562 10.949219 -0.0351562 12.699219 C -0.0351562 15.765625 1.050781 18.574219 2.859375 20.765625 L 2.839844 20.742188 C 5.863281 24.769531 8.179688 27.9375 9.792969 30.242188 C 10.996094 31.859375 12.242188 33.539062 13.523438 35.285156 C 14.699219 36.851562 15.742188 38.640625 16.582031 40.535156 L 16.648438 40.707031 C 17.117188 41.699219 17.523438 42.882812 17.824219 44.101562 L 17.851562 44.234375 C 18.117188 45.378906 18.453125 46.621094 18.859375 47.964844 C 20.0625 51.054688 21.207031 54.222656 22.285156 57.464844 C 23.457031 61.007812 24.757812 64.007812 26.265625 66.867188 L 26.109375 66.535156 C 26.914062 68.011719 27.722656 69.457031 28.535156 70.867188 C 29.34375 72.277344 30.214844 73.65625 31.148438 75 C 31.691406 75.816406 32.375 76.492188 33.160156 77.015625 L 33.183594 77.035156 C 34.007812 77.632812 34.550781 78.574219 34.589844 79.640625 L 34.589844 79.648438 C 33.640625 81.050781 33 82.726562 32.785156 84.535156 L 32.773438 84.582031 C 32.484375 86.691406 32.066406 88.566406 31.5 90.375 L 31.566406 90.125 C 29.707031 95.675781 28.640625 102.074219 28.640625 108.714844 C 28.640625 110.867188 28.75 112.984375 28.976562 115.074219 L 28.949219 114.816406 C 29.449219 122.800781 31.859375 130.132812 35.714844 136.484375 L 35.601562 136.273438 C 37.242188 138.734375 39 140.875 40.941406 142.832031 C 42.339844 144.398438 44.375 145.382812 46.640625 145.382812 C 47.910156 145.382812 49.109375 145.074219 50.160156 144.523438 L 50.117188 144.542969 C 53.035156 143.492188 55.109375 140.824219 55.257812 137.648438 L 55.257812 137.632812 C 55.660156 133.683594 56.257812 130.148438 57.082031 126.699219 L 56.976562 127.257812 C 57.175781 126.734375 57.292969 126.132812 57.292969 125.5 C 57.292969 125.375 57.285156 125.25 57.273438 125.125 L 57.273438 125.140625 C 57.207031 124.535156 57.578125 123.964844 58.382812 123.425781 L 58.382812 123.824219 C 59.1875 125.707031 60.027344 127.589844 60.898438 129.464844 C 61.773438 131.34375 62.679688 133.226562 63.617188 135.109375 C 66.074219 138.851562 68.683594 142.117188 71.550781 145.125 L 71.523438 145.101562 C 74.398438 148.199219 77.535156 150.984375 80.917969 153.441406 L 81.101562 153.566406 C 82.867188 154.917969 84.417969 156.375 85.816406 157.964844 L 85.851562 158 C 87.167969 159.550781 88.742188 160.824219 90.515625 161.785156 L 90.601562 161.824219 L 90.601562 161.625 L 91 161.625 C 90.675781 160.898438 90.148438 160.316406 89.5 159.917969 L 89.484375 159.910156 C 88.824219 159.542969 88.257812 159.175781 87.726562 158.773438 L 87.765625 158.800781 C 86.5625 157.59375 85.316406 156.25 84.035156 154.765625 C 82.75 153.285156 81.574219 151.871094 80.507812 150.535156 C 77.6875 146.632812 74.996094 142.558594 72.433594 138.308594 C 69.871094 134.058594 67.453125 129.738281 65.175781 125.351562 C 64.097656 123.199219 63.054688 120.984375 62.050781 118.699219 C 61.042969 116.417969 60.070312 114.199219 59.125 112.050781 C 58.714844 111.226562 58.433594 110.273438 58.324219 109.265625 L 58.324219 109.226562 C 58.273438 108.265625 57.726562 107.441406 56.925781 107.015625 L 56.910156 107.007812 C 55.898438 108.726562 54.785156 110.207031 53.507812 111.550781 L 53.515625 111.542969 C 52.191406 112.933594 51.109375 114.574219 50.332031 116.375 L 50.292969 116.484375 C 49.117188 119.332031 48.257812 122.640625 47.882812 126.101562 L 47.867188 126.257812 C 47.464844 129.820312 47.0625 133.480469 46.660156 137.242188 L 46.257812 137.441406 L 46.058594 137.640625 C 43.890625 137.199219 42.109375 135.816406 41.140625 133.949219 L 41.125 133.910156 C 40.113281 131.957031 39.207031 130.042969 38.410156 128.160156 C 36.339844 122.851562 35.058594 116.707031 34.882812 110.292969 L 34.882812 110.214844 C 34.808594 109.199219 34.773438 108.007812 34.773438 106.816406 C 34.773438 101.265625 35.648438 95.917969 37.265625 90.898438 L 37.167969 91.265625 C 37.566406 89.789062 38.4375 87.300781 39.785156 83.800781 C 41.128906 80.300781 41.398438 77.878906 40.589844 76.542969 C 40.175781 75.167969 39.398438 74.007812 38.382812 73.125 L 38.375 73.117188 C 37.359375 72.234375 36.433594 71.308594 35.582031 70.324219 L 35.558594 70.292969 C 34.621094 68.9375 33.714844 67.492188 32.839844 65.957031 C 31.96875 64.425781 31.195312 62.914062 30.523438 61.425781 C 29.148438 58.242188 27.742188 54.25 26.574219 50.148438 L 26.390625 49.410156 C 25.066406 44.699219 23.589844 40.714844 21.839844 36.882812 L 22.058594 37.417969 C 21.132812 35.316406 20.058594 33.5 18.808594 31.839844 L 18.859375 31.910156 C 17.503906 30.097656 16.292969 28.382812 15.226562 26.765625 C 13.871094 25.023438 12.523438 23.339844 11.191406 21.726562 C 9.832031 20.082031 8.625 18.234375 7.640625 16.25 L 7.566406 16.082031 C 7.167969 15.273438 6.816406 14.332031 6.574219 13.359375 L 6.558594 13.265625 C 6.464844 12.976562 6.417969 12.632812 6.417969 12.292969 C 6.417969 11.609375 6.617188 10.964844 6.964844 10.433594 L 6.957031 10.449219 C 7.050781 9.984375 7.265625 9.574219 7.566406 9.242188 C 7.890625 8.949219 8.308594 8.734375 8.757812 8.640625 L 8.773438 8.640625 C 9.484375 8.183594 10.339844 7.910156 11.273438 7.910156 C 11.976562 7.910156 12.648438 8.066406 13.242188 8.351562 L 13.214844 8.339844 C 15.042969 8.859375 16.515625 9.375 17.957031 9.964844 L 17.660156 9.859375 C 20.207031 10.9375 22.5625 11.976562 24.714844 12.984375 C 27.199219 14.167969 29.316406 15.417969 31.316406 16.808594 L 31.167969 16.707031 C 32.246094 17.378906 33.320312 18.121094 34.390625 18.925781 C 35.464844 19.730469 36.605469 20.539062 37.816406 21.351562 L 40.640625 21.351562 C 42.792969 21.351562 45.074219 21.453125 47.492188 21.660156 C 49.933594 21.851562 52.191406 22.308594 54.339844 23.023438 L 54.140625 22.964844 C 58.148438 24.160156 61.589844 25.566406 64.859375 27.257812 L 64.515625 27.101562 C 67.8125 28.777344 70.9375 30.558594 73.890625 32.441406 C 78.800781 35.5 83.042969 38.632812 87.035156 42.058594 L 86.890625 41.941406 C 91.058594 45.507812 94.839844 49.167969 98.390625 53.035156 L 98.476562 53.132812 C 101.941406 56.917969 105.25 61.023438 108.273438 65.332031 L 108.535156 65.726562 C 111.316406 69.660156 114.125 74.207031 116.648438 78.925781 L 117 79.632812 C 117.675781 80.917969 118.359375 82.492188 118.949219 84.101562 L 119.042969 84.375 C 119.582031 85.917969 120.183594 87.503906 120.851562 89.125 C 122.328125 92.484375 123.910156 95.878906 125.601562 99.300781 C 127.289062 102.722656 128.871094 106.050781 130.351562 109.285156 L 134.785156 118.957031 C 136.339844 122.339844 138.082031 125.257812 140.109375 127.949219 L 140.015625 127.824219 C 141.707031 129.632812 143.964844 130.898438 146.5 131.339844 L 146.566406 131.351562 C 149.632812 132.117188 152.214844 132.984375 154.714844 134.007812 L 154.324219 133.867188 C 155.515625 134.410156 157.050781 134.984375 158.625 135.492188 L 158.957031 135.582031 C 160.726562 136.125 162.257812 136.839844 163.667969 137.742188 L 163.589844 137.699219 C 166.316406 139.226562 168.625 140.726562 170.824219 142.359375 L 170.648438 142.234375 C 172.933594 143.910156 175.214844 145.496094 177.5 146.984375 C 178.578125 147.789062 180.386719 148.964844 182.925781 150.507812 C 185.464844 152.054688 186.808594 153.496094 186.957031 154.839844 C 186.007812 154.808594 184.882812 154.785156 183.757812 154.785156 C 179.660156 154.785156 175.625 155.050781 171.675781 155.566406 L 172.140625 155.515625 C 167.675781 156.117188 163.625 157.207031 159.816406 158.765625 L 160.148438 158.648438 C 159.207031 159.058594 158.082031 159.433594 156.917969 159.726562 L 156.757812 159.757812 C 155.574219 159.933594 154.660156 160.882812 154.542969 162.066406 L 154.542969 162.074219 C 155.050781 162.707031 155.457031 163.441406 155.734375 164.242188 L 155.75 164.292969 C 156.035156 165.140625 156.375 165.875 156.792969 166.558594 L 156.765625 166.507812 C 157.757812 168.265625 158.824219 169.785156 160.023438 171.183594 L 159.992188 171.140625 C 161.167969 172.589844 162.492188 173.851562 163.957031 174.925781 L 164.015625 174.964844 C 165.371094 176.042969 166.785156 177.152344 168.25 178.292969 C 169.589844 179.339844 171.109375 180.375 172.683594 181.308594 L 172.882812 181.417969 C 175.25 182.867188 178 184.25 180.867188 185.410156 L 181.25 185.542969 C 184.367188 186.792969 187.042969 188.242188 189.523438 189.964844 L 189.390625 189.875 C 191.007812 190.8125 192.621094 191.855469 194.226562 193 C 195.832031 194.144531 197.375 195.253906 198.859375 196.324219 C 199.464844 196.925781 200 197.589844 200.449219 198.316406 L 200.476562 198.359375 C 201.234375 199.226562 202.285156 199.816406 203.476562 199.964844 L 203.5 199.964844 L 203.5 199.566406 C 202.765625 199.007812 202.226562 198.234375 201.964844 197.339844 L 201.957031 197.308594 C 201.75 196.457031 201.441406 195.714844 201.023438 195.035156 L 201.042969 195.066406 Z M 46.273438 35.058594 C 45.195312 35.058594 44.1875 35.089844 43.25 35.160156 C 42.292969 35.226562 41.398438 35.398438 40.558594 35.683594 L 40.632812 35.660156 L 40.632812 35.859375 L 41.035156 35.859375 C 41.570312 36.664062 42.25 37.570312 43.066406 38.574219 C 43.882812 39.582031 44.621094 40.554688 45.285156 41.5 L 48.507812 48.148438 L 48.910156 47.949219 C 49.851562 47.265625 50.574219 46.351562 51.007812 45.273438 L 51.023438 45.234375 C 51.457031 44.074219 51.707031 42.726562 51.707031 41.324219 C 51.707031 41.175781 51.707031 41.023438 51.699219 40.875 L 51.699219 40.898438 C 51.324219 40.535156 51.015625 40.101562 50.800781 39.617188 L 50.792969 39.589844 L 50.117188 38.074219 C 49.675781 37.375 49.058594 36.824219 48.332031 36.476562 L 48.308594 36.464844 C 47.523438 36.089844 46.859375 35.617188 46.273438 35.058594 Z M 46.273438 35.058594 "/>
</g>
</svg>
