<?xml version="1.0" encoding="UTF-8"?>
<svg xmlns="http://www.w3.org/2000/svg" xmlns:xlink="http://www.w3.org/1999/xlink" width="100px" height="200px" viewBox="0 0 200 200" version="1.1">
<g id="surface1">
<path d="M 136.765625 36.765625 L 63.265625 36.765625 C 28.34375 36.75 0.0195312 65.042969 0 99.964844 C -0.0195312 134.890625 28.277344 163.214844 63.199219 163.234375 L 136.765625 163.234375 C 171.691406 163.234375 200 134.921875 200 100 C 200 65.078125 171.691406 36.765625 136.765625 36.765625 Z M 135.160156 140.949219 L 64.882812 140.949219 C 42.589844 140.5 24.75 122.296875 24.75 100 C 24.75 77.703125 42.589844 59.5 64.882812 59.050781 L 135.160156 59.050781 C 157.773438 59.050781 176.109375 77.382812 176.109375 100 C 176.109375 122.617188 157.773438 140.949219 135.160156 140.949219 Z M 135.160156 140.949219 "/>
</g>
</svg>
