<?xml version="1.0" encoding="UTF-8"?>
<svg xmlns="http://www.w3.org/2000/svg" xmlns:xlink="http://www.w3.org/1999/xlink" width="100px" height="200px" viewBox="0 0 200 200" version="1.1">
<defs>
<clipPath id="clip1">
  <path d="M 5.292969 107 L 30 107 L 30 162 L 5.292969 162 Z M 5.292969 107 "/>
</clipPath>
<clipPath id="clip2">
  <path d="M 111 68 L 137 68 L 137 199.410156 L 111 199.410156 Z M 111 68 "/>
</clipPath>
<clipPath id="clip3">
  <path d="M 11 0 L 194.707031 0 L 194.707031 183 L 11 183 Z M 11 0 "/>
</clipPath>
</defs>
<g id="surface1">
<path d="M 65.292969 160.589844 C 65.292969 167.058594 60 172.941406 52.941406 172.941406 C 45.882812 172.941406 40.589844 167.648438 40.589844 160.589844 L 40.589844 107.648438 C 40.589844 101.175781 45.882812 95.292969 52.941406 95.292969 C 60 95.292969 65.292969 100.589844 65.292969 107.648438 Z M 65.292969 160.589844 "/>
<path d="M 100.589844 174.707031 C 100.589844 181.175781 95.292969 187.058594 88.234375 187.058594 C 81.175781 187.058594 76.46875 181.765625 76.46875 174.707031 L 76.46875 94.117188 C 76.46875 87.648438 81.765625 81.765625 88.824219 81.765625 C 95.882812 81.765625 101.175781 87.058594 101.175781 94.117188 L 101.175781 174.707031 Z M 100.589844 174.707031 "/>
<g clip-path="url(#clip1)" clip-rule="nonzero">
<path d="M 29.410156 148.824219 C 29.410156 155.292969 24.117188 161.175781 17.058594 161.175781 C 10 161.175781 4.707031 155.882812 4.707031 148.824219 L 4.707031 120 C 4.707031 113.53125 10 107.648438 17.058594 107.648438 C 24.117188 107.648438 29.410156 113.53125 29.410156 120 Z M 29.410156 148.824219 "/>
</g>
<g clip-path="url(#clip2)" clip-rule="nonzero">
<path d="M 135.882812 187.648438 C 135.882812 194.117188 130.589844 200 123.53125 200 C 117.058594 200 111.765625 194.117188 111.765625 187.648438 L 111.765625 80.589844 C 111.765625 74.117188 117.058594 68.234375 124.117188 68.234375 C 130.589844 68.234375 136.46875 73.53125 136.46875 80.589844 L 136.46875 187.648438 Z M 135.882812 187.648438 "/>
</g>
<g clip-path="url(#clip3)" clip-rule="nonzero">
<path d="M 174.707031 182.351562 C 172.351562 182.351562 170.589844 181.765625 168.234375 181.175781 L 153.53125 176.46875 C 151.175781 175.882812 149.410156 172.941406 150.589844 170.589844 C 151.175781 168.234375 154.117188 166.46875 156.46875 167.648438 L 171.765625 172.351562 C 174.707031 173.53125 178.234375 172.941406 181.175781 170.589844 C 184.117188 168.824219 185.292969 165.292969 185.292969 162.351562 L 185.292969 64.117188 C 185.292969 59.410156 182.351562 55.292969 178.234375 54.117188 L 34.117188 10.589844 C 31.175781 9.410156 27.648438 10 24.707031 11.765625 C 22.351562 14.117188 20.589844 17.058594 20.589844 20.589844 L 20.589844 88.234375 C 20.589844 91.175781 18.234375 92.941406 15.882812 92.941406 C 12.941406 92.941406 11.175781 90.589844 11.175781 88.234375 L 11.175781 20.589844 C 11.175781 14.117188 14.117188 8.234375 19.410156 4.707031 C 24.707031 0.589844 31.175781 0 37.058594 1.765625 L 180.589844 45.292969 C 188.824219 47.648438 194.707031 55.882812 194.707031 64.707031 L 194.707031 162.941406 C 194.707031 169.410156 191.765625 175.292969 186.46875 179.410156 C 182.941406 180.589844 178.824219 182.351562 174.707031 182.351562 "/>
</g>
</g>
</svg>
