<?xml version="1.0" encoding="UTF-8"?>
<svg xmlns="http://www.w3.org/2000/svg" xmlns:xlink="http://www.w3.org/1999/xlink" width="100px" height="200px" viewBox="0 0 200 200" version="1.1">
<g id="surface1">
<path d="M 181.851562 10.398438 C 179.035156 17.117188 175.464844 23.484375 171.175781 29.332031 C 216.421875 -1.757812 228.296875 -63.429688 197.828125 -109.097656 C 167.359375 -154.765625 105.855469 -167.484375 59.773438 -137.648438 C 13.691406 -107.8125 0.128906 -46.488281 29.332031 0 C 45.257812 0 0 45.25 0 100.257812 C 0 127.699219 11.25 153.964844 31.140625 172.898438 L 34.839844 176.175781 C -13.808594 138.050781 -22.339844 67.707031 15.785156 19.058594 C 53.90625 -29.589844 124.25 -38.125 172.898438 0 C 225.191406 0 269.148438 -40.925781 272.875 -93.101562 C 275.609375 -118.640625 268.109375 -150.941406 255.324219 -189.351562 Z M 45.390625 173.476562 C 43.773438 175.476562 41.308594 176.640625 38.726562 176.640625 C -10.054688 179.011719 -51.515625 141.390625 -53.886719 92.613281 C -56.257812 43.835938 -18.636719 2.371094 30.140625 0 C 30.140625 -4.699219 34.015625 -8.582031 38.707031 -8.582031 C 41.078125 4.476562 32.414062 16.984375 19.355469 19.355469 C 6.296875 21.722656 -6.214844 13.058594 -8.582031 0 Z M 181.433594 143.457031 C 156.691406 176.410156 103.851562 165.308594 69.976562 166.890625 C 69.976562 166.890625 63.957031 167.257812 57.917969 168.242188 C 57.917969 168.242188 60.183594 167.285156 63.125 166.160156 C 86.898438 157.890625 98.148438 156.285156 112.601562 148.867188 C 139.816406 135.035156 166.714844 104.757812 172.316406 73.265625 C 161.949219 103.566406 130.550781 129.601562 101.925781 140.183594 C 82.316406 147.410156 46.898438 154.433594 46.898438 154.433594 L 45.464844 153.683594 C 21.351562 141.949219 20.625 89.75 64.449219 72.898438 C 83.640625 65.515625 102.007812 69.566406 122.734375 64.632812 C 144.867188 59.382812 170.464844 42.785156 180.882812 21.140625 C 192.550781 55.757812 206.589844 109.957031 181.433594 143.457031 Z M 181.433594 143.457031 "/>
</g>
</svg>
