<?xml version="1.0" encoding="UTF-8"?>
<svg xmlns="http://www.w3.org/2000/svg" xmlns:xlink="http://www.w3.org/1999/xlink" width="100px" height="200px" viewBox="0 0 200 200" version="1.1">
<g id="surface1">
<path d="M 200 172.941406 L 200 120.390625 C 172.625 131.191406 138.648438 141.691406 98.082031 151.941406 C 60.300781 161.484375 27.601562 168.359375 0 172.566406 L 0 172.941406 Z M 0 117.316406 L 0 160.089844 C 31.148438 155.507812 59.300781 150.042969 84.417969 143.699219 C 109.101562 137.464844 128.125 131.410156 141.476562 125.535156 C 154.824219 119.675781 160.976562 114.726562 159.976562 110.699219 C 159.082031 107.199219 152.925781 105.410156 141.5 105.324219 C 135.640625 105.410156 127.582031 105.824219 117.300781 106.574219 C 107 107.324219 94.183594 108.523438 78.882812 110.125 C 55.132812 112.660156 35.417969 114.601562 19.714844 115.910156 C 12.25 116.535156 5.675781 117.007812 0 117.324219 Z M 8.625 141.898438 C 9.125 141.898438 9.574219 142.109375 9.957031 142.484375 C 10.339844 142.867188 10.542969 143.339844 10.542969 143.867188 C 10.542969 144.417969 10.339844 144.867188 9.957031 145.265625 C 9.566406 145.640625 9.089844 145.816406 8.589844 145.816406 C 8.324219 145.816406 8.058594 145.765625 7.824219 145.667969 C 7.574219 145.566406 7.375 145.417969 7.199219 145.25 C 7.007812 145.132812 6.867188 144.882812 6.785156 144.632812 C 6.785156 144.507812 6.648438 144.257812 6.648438 143.882812 C 6.648438 143.382812 6.898438 142.882812 7.273438 142.507812 C 7.648438 142.132812 8.148438 142.007812 8.773438 142.007812 Z M 15.375 141.898438 C 15.898438 141.898438 16.351562 142.109375 16.75 142.484375 C 17.125 142.867188 17.300781 143.339844 17.300781 143.867188 C 17.300781 144.417969 17.117188 144.867188 16.742188 145.265625 C 16.242188 145.640625 15.859375 145.816406 15.242188 145.816406 C 14.992188 145.816406 14.742188 145.765625 14.492188 145.667969 C 14.242188 145.566406 13.992188 145.417969 13.859375 145.25 C 13.609375 145.132812 13.484375 144.882812 13.359375 144.632812 C 13.234375 144.507812 13.234375 144.257812 13.234375 143.882812 C 13.234375 143.382812 13.351562 142.882812 13.734375 142.507812 C 14.117188 142.132812 14.601562 142.007812 15.101562 142.007812 Z M 8.625 129.316406 C 9.125 129.316406 9.574219 129.5 9.957031 129.898438 C 10.339844 130.273438 10.542969 130.734375 10.542969 131.273438 C 10.542969 131.808594 10.339844 132.273438 9.957031 132.648438 C 9.574219 133.023438 9.125 133.234375 8.589844 133.234375 C 8.050781 133.234375 7.574219 133.035156 7.199219 132.648438 C 6.824219 132.273438 6.617188 131.800781 6.617188 131.273438 C 6.617188 130.714844 6.75 130.25 7.117188 129.875 C 7.484375 129.5 8 129.308594 8.5 129.308594 Z M 15.375 129.316406 C 15.898438 129.316406 16.351562 129.5 16.75 129.898438 C 17.125 130.273438 17.300781 130.734375 17.300781 131.273438 C 17.300781 131.808594 17.117188 132.273438 16.742188 132.648438 C 16.242188 133.023438 15.859375 133.234375 15.242188 133.234375 C 14.625 133.234375 14.242188 133.035156 13.859375 132.648438 C 13.484375 132.273438 13.234375 131.800781 13.234375 131.273438 C 13.234375 130.714844 13.351562 130.25 13.734375 129.875 C 14.117188 129.5 14.601562 129.308594 15.101562 129.308594 Z M 200 38.308594 L 200 78.417969 C 186.375 79.25 169.332031 80.726562 148.851562 82.867188 C 128.101562 85.117188 111.183594 86.867188 98.074219 87.992188 C 84.941406 89.242188 75.464844 89.875 69.660156 89.992188 C 58.300781 90.242188 52.242188 88.742188 51.367188 85.375 C 50.492188 81.625 57.242188 76.625 71.742188 70.625 C 86.242188 64.5 105.492188 58.375 129.242188 52.375 C 150.117188 47.125 173.742188 42.5 199.992188 38.625 Z M 192.875 27.058594 C 165.75 32.101562 137.648438 38.308594 108.589844 45.640625 C 63.226562 57.101562 27.035156 68.5 0 79.773438 L 0 27.066406 L 192.882812 27.066406 Z M 192.875 27.058594 "/>
</g>
</svg>
